<svg xmlns="http://www.w3.org/2000/svg" width="800" height="640" viewBox="0 0 800 640"><rect width="800" height="640" fill="#ded8ce"/><path d="M0 470h800v170H0z" fill="#cbc4b9"/><ellipse cx="430" cy="489" rx="180" ry="25" fill="#bab1a5"/><path d="M305 210c-18 100-74 148-46 235 31 92 246 87 272-5 24-83-27-136-44-230z" fill="#eeeae0"/><ellipse cx="396" cy="210" rx="91" ry="27" fill="#c5bdb0"/><ellipse cx="396" cy="210" rx="70" ry="14" fill="#857a69"/><path d="M322 245c-12 100-50 146-19 201" fill="none" stroke="#faf8f3" stroke-width="15" opacity=".7"/><path d="M573 352h66v130h-66z" fill="#434a45"/><ellipse cx="606" cy="352" rx="33" ry="11" fill="#647164"/><path d="M606 348c-21-50-9-126-36-165m37 109c36-29 44-64 57-87" stroke="#535f4d" stroke-width="5" fill="none"/><path d="M575 218c-54-14-52-54-52-54 45 4 57 27 52 54M637 253c0-43 35-58 35-58 8 39-9 59-35 58" fill="#65745c"/></svg>
